<svg class="icon" style="width: 1em; height: 1em;vertical-align: middle;fill: currentColor;overflow: hidden;" viewBox="0 0 1024 1024" version="1.1" xmlns="http://www.w3.org/2000/svg" p-id="7203"><path d="M815.67451394 131.88148124H209.98249465c-55.75835284 0-100.95327217 13.57366582-100.95327218 56.68351485v26.01504191h807.58475496v-26.01504191c0.01380867-43.10985023-45.18111186-56.68351605-100.93946349-56.68351485" p-id="7204"></path><path d="M724.55282749 187.04607186L704.86203748 46.25554181c-3.82492854-27.50634879-29.66046128-49.97262965-57.4291701-49.97262965H378.23794988c-27.76870881 0-53.59043289 22.46627965-57.47059493 50.01405447l-19.69079121 140.80433873c-3.83873722 27.50634879 15.74158578 22.36962133 43.51029461 22.36962134h336.48329189c27.78251749-0.02761735 47.3628405 5.12291999 43.48267725-22.42485484z m-359.83330994-28.55578889l15.54826793-111.26815312h265.12143762l15.54826794 111.26815312H364.71951755zM832.50696343 277.51876259H193.16385382c-37.00653351 0-64.56811702 30.17137145-61.22648249 67.02601314l55.13697446 606.18912199c3.32782585 36.86845038 36.38515515 67.02601315 73.37788121 67.02601316h504.72493845c37.00653351 0 70.06386282-30.17137145 73.3778812-67.02601316l55.13697325-606.18912199c3.38306055-36.86845038-24.19233163-67.02601315-61.18505647-67.02601314zM378.23794988 947.58557984h-130.72420167L203.93441265 355.55007723h174.28972854V947.58557984z m221.34878298 0H425.21415468V355.55007723h174.37257818V947.58557984z m177.27234595 0h-129.42621143V355.55007723h172.56367779L776.85907881 947.58557984z" p-id="7205"></path></svg>