<svg class="icon" style="width: 1em; height: 1em;vertical-align: middle;fill: currentColor;overflow: hidden;" viewBox="0 0 1024 1024" version="1.1" xmlns="http://www.w3.org/2000/svg" p-id="5877"><path d="M511.668449 341.853855c-93.638657 0-169.818687 76.175937-169.818687 169.809477 0 93.626377 76.18003 169.798221 169.818687 169.798221 93.626377 0 169.798221-76.171843 169.798221-169.798221C681.465646 418.030815 605.294826 341.853855 511.668449 341.853855zM511.668449 640.529305c-71.068615 0-128.886439-57.808614-128.886439-128.865973 0-71.063499 57.817824-128.877229 128.886439-128.877229 71.056336 0 128.865973 57.81373 128.865973 128.877229C640.533398 582.719668 582.724785 640.529305 511.668449 640.529305zM959.360817 591.147618 959.360817 410.670174l-130.206504-26.938536c-2.918469-7.225565-6.101975-14.386662-9.529027-21.436218l71.724555-109.140723-127.606283-127.615493-117.120464 71.571059c-7.90504-3.394307-15.954367-6.496971-24.085558-9.282411l-25.63382-123.883495L416.421154 63.944358 385.115148 193.621812c-7.223518 2.879584-14.377452 6.019087-21.411659 9.395998L253.691933 130.720204l-127.606283 127.60833 71.560826 117.109208c-3.617387 8.333806-6.909363 16.83441-9.852392 25.435299L63.954591 426.491511l0 180.477444 129.691781 31.306007c3.382027 8.486278 7.111978 16.85283 11.157107 25.031093l-67.405179 104.162338 126.851083 128.812761L376.979864 826.322825c6.501064 2.785439 13.098319 5.372358 19.748786 7.745405L426.978605 959.370027l180.466188 0 26.486234-128.005372c9.999748-3.827165 19.837814-8.132214 29.42517-12.877285l104.162338 67.349921 128.880299-126.844943-70.025866-112.76732c3.550873-8.296967 6.779404-16.758686 9.661034-25.311479L959.360817 591.147618zM844.358597 752.778832l-82.168418 80.869842-96.762811-62.565964-10.665921 5.7694c-14.437827 7.80885-29.64825 14.477736-45.205575 19.821441l-11.030218 3.78828-24.409946 117.974925L459.205587 918.436756 431.163927 802.286386l-10.981099-3.495614c-12.249999-3.89982-24.38948-8.652054-36.081777-14.125719l-10.044774-4.701069-103.594403 64.287165-80.860632-82.110089 62.60792-96.750531-5.768377-10.670014c-7.055696-13.050224-13.19451-26.762527-18.247596-40.758286l-3.740184-10.359952-119.566166-28.862351L104.886839 459.82264 219.687468 436.074773l3.521197-11.657504c4.293793-14.217816 9.69378-28.224832 16.049534-41.634236l4.737908-9.997702-66.179258-108.301612 81.250512-81.251535 102.100376 67.098187 10.676154-5.603625c12.134365-6.369058 24.77629-11.939937 37.576827-16.556071l10.365068-3.739161 28.862351-119.555933 114.926496 0 23.76117 114.836445 11.652388 3.52222c13.764492 4.161786 27.361161 9.374508 40.412408 15.493879l9.967002 4.673439 108.22077-66.132186 81.250512 81.257675-66.597791 101.341083 5.685489 10.706853c6.520507 12.279674 12.209066 25.044396 16.907065 37.938054l3.90596 10.723226 119.688963 24.761963 0 114.918309-114.653273 27.672246-3.364631 11.283997c-4.195555 14.069437-9.475815 27.946492-15.694447 41.24231l-4.699022 10.045797L844.358597 752.778832z" p-id="5878"></path></svg>